<svg id="svg" version="1.1" xmlns="http://www.w3.org/2000/svg" xmlns:xlink="http://www.w3.org/1999/xlink" width="400" height="400" viewBox="0, 0, 400,400"><g id="svgg"><path id="path0" d="M141.724 32.163 C 140.746 32.606,140.384 33.076,140.179 34.171 L 139.911 35.600 134.555 35.650 C 126.754 35.723,127.485 35.531,127.359 37.542 C 127.221 39.745,127.452 39.606,123.861 39.643 C 121.329 39.669,120.800 39.786,120.800 40.317 C 120.800 40.817,120.693 40.853,120.320 40.480 C 119.727 39.887,119.200 39.860,119.200 40.424 C 119.200 40.657,119.380 40.736,119.600 40.600 C 119.820 40.464,120.000 40.543,120.000 40.776 C 120.000 41.009,119.716 41.200,119.370 41.200 C 118.932 41.200,118.762 41.535,118.812 42.300 C 118.933 44.133,118.866 44.200,116.900 44.200 C 115.280 44.200,114.994 44.318,114.959 45.000 C 114.937 45.440,114.892 46.360,114.859 47.045 C 114.807 48.148,114.686 48.267,113.794 48.097 C 112.971 47.939,112.836 48.029,113.052 48.592 C 113.286 49.201,113.220 49.219,112.468 48.750 C 111.279 48.007,110.381 48.837,111.110 50.005 C 111.748 51.027,111.728 51.200,110.971 51.200 C 110.565 51.200,110.368 51.518,110.416 52.100 C 110.706 55.689,110.489 56.284,108.788 56.556 C 106.439 56.931,106.413 57.118,106.426 73.032 C 106.440 88.580,106.543 89.431,108.374 89.065 C 109.970 88.746,110.411 89.443,110.452 92.355 C 110.477 94.182,110.654 94.906,111.143 95.192 C 111.504 95.403,111.591 95.581,111.335 95.588 C 110.826 95.601,110.835 96.300,111.355 97.132 C 111.551 97.446,112.054 97.573,112.579 97.441 C 114.012 97.081,114.923 98.047,114.923 99.925 C 114.923 100.830,115.075 101.477,115.262 101.362 C 115.448 101.247,115.600 101.298,115.600 101.476 C 115.600 101.654,116.251 101.836,117.046 101.879 C 118.828 101.977,118.868 102.017,118.917 103.747 C 118.940 104.547,119.125 105.047,119.347 104.909 C 119.575 104.769,119.627 104.953,119.473 105.355 C 119.327 105.735,119.374 105.940,119.577 105.814 C 119.779 105.689,120.048 105.755,120.175 105.960 C 120.302 106.165,121.011 106.285,121.750 106.226 C 122.885 106.136,123.064 106.235,122.900 106.859 C 122.794 107.266,123.038 108.094,123.442 108.699 C 123.847 109.305,124.153 109.890,124.122 110.001 C 124.091 110.112,124.682 110.218,125.435 110.237 C 127.042 110.277,127.094 110.315,127.340 111.609 C 127.444 112.154,127.665 112.945,127.832 113.366 C 128.061 113.943,128.006 114.051,127.606 113.804 C 127.249 113.583,127.172 113.631,127.368 113.949 C 127.529 114.209,127.872 114.395,128.130 114.363 C 130.760 114.039,131.666 114.391,131.393 115.634 C 131.126 116.845,132.325 118.742,132.957 118.109 C 133.091 117.976,133.200 118.045,133.200 118.264 C 133.200 118.483,133.740 118.582,134.400 118.485 C 135.676 118.298,135.651 118.242,135.736 121.457 C 135.752 122.041,135.946 122.242,136.345 122.089 C 136.667 121.965,136.829 122.030,136.705 122.232 C 136.580 122.434,137.123 122.647,137.911 122.705 C 139.696 122.837,139.767 122.911,139.719 124.611 C 139.697 125.374,139.843 125.897,140.042 125.774 C 140.242 125.650,140.513 125.830,140.645 126.172 C 140.776 126.515,141.045 126.696,141.242 126.574 C 141.439 126.452,141.600 126.514,141.600 126.712 C 141.600 126.910,142.140 127.039,142.800 127.000 C 144.056 126.925,144.074 126.957,144.143 129.453 C 144.168 130.373,144.331 130.648,144.754 130.485 C 145.072 130.364,145.223 130.439,145.091 130.653 C 144.953 130.876,145.330 131.009,145.972 130.965 C 147.538 130.856,148.081 131.304,148.140 132.751 C 148.169 133.438,148.328 134.000,148.496 134.000 C 148.663 134.000,148.800 134.191,148.800 134.424 C 148.800 134.657,148.592 134.719,148.338 134.562 C 148.050 134.384,147.985 134.452,148.166 134.745 C 148.325 135.002,148.610 135.117,148.800 135.000 C 148.990 134.883,149.248 134.955,149.375 135.160 C 149.502 135.365,150.204 135.486,150.936 135.428 C 152.130 135.333,152.248 135.416,152.090 136.243 C 151.909 137.187,153.275 139.392,153.747 138.920 C 153.886 138.781,154.000 138.860,154.000 139.096 C 154.000 139.332,154.315 139.450,154.700 139.357 C 155.709 139.116,156.424 139.716,156.552 140.913 C 156.613 141.485,156.919 142.267,157.231 142.651 C 157.743 143.279,157.721 143.320,157.012 143.054 C 156.579 142.891,156.366 142.899,156.539 143.073 C 156.713 143.246,157.590 143.425,158.489 143.470 C 160.376 143.566,160.842 144.090,160.511 145.743 C 160.343 146.584,160.409 146.842,160.740 146.637 C 161.001 146.476,161.311 146.623,161.445 146.972 C 161.576 147.315,161.845 147.496,162.042 147.374 C 162.239 147.252,162.400 147.309,162.400 147.499 C 162.400 147.690,162.940 147.808,163.600 147.763 C 164.766 147.682,165.144 148.412,164.833 150.142 C 164.800 150.330,165.003 150.770,165.286 151.119 C 165.713 151.646,165.705 151.696,165.238 151.415 C 164.880 151.199,164.769 151.227,164.933 151.491 C 165.074 151.719,165.930 151.916,166.837 151.928 C 168.865 151.956,168.854 151.945,168.934 154.068 C 168.970 155.020,169.180 155.803,169.400 155.806 C 169.620 155.809,169.980 155.922,170.200 156.056 C 170.420 156.190,171.140 156.264,171.800 156.220 C 172.831 156.152,173.007 156.285,173.053 157.170 C 173.151 159.073,173.364 159.946,173.683 159.749 C 173.857 159.641,174.000 159.725,174.000 159.936 C 174.000 160.147,174.642 160.320,175.427 160.320 C 177.127 160.320,177.300 160.456,177.300 161.791 C 177.300 162.354,177.458 162.912,177.650 163.031 C 177.843 163.150,178.000 163.427,178.000 163.647 C 178.000 163.867,177.792 163.919,177.538 163.762 C 177.280 163.602,177.184 163.651,177.321 163.872 C 177.455 164.089,178.309 164.297,179.218 164.332 C 181.372 164.417,181.619 164.606,181.347 165.967 C 181.217 166.615,181.311 167.222,181.566 167.379 C 181.812 167.531,181.892 167.851,181.745 168.089 C 181.591 168.339,181.661 168.409,181.911 168.255 C 182.149 168.108,182.452 168.161,182.583 168.373 C 182.715 168.585,183.355 168.692,184.006 168.609 C 185.419 168.431,185.598 168.663,185.761 170.891 L 185.887 172.600 187.743 172.722 C 189.681 172.849,189.852 173.089,189.614 175.344 C 189.560 175.847,189.697 175.988,190.035 175.778 C 190.390 175.559,190.459 175.669,190.273 176.155 C 190.127 176.535,190.174 176.740,190.377 176.614 C 190.579 176.489,190.848 176.555,190.975 176.760 C 191.102 176.965,191.835 177.083,192.603 177.022 C 193.965 176.914,194.000 176.948,194.000 178.376 C 194.000 179.181,194.225 180.082,194.500 180.379 C 194.904 180.814,194.893 180.856,194.438 180.597 C 194.091 180.399,193.972 180.432,194.128 180.684 C 194.267 180.908,195.110 181.091,196.002 181.091 C 197.938 181.091,198.077 181.201,198.142 182.779 C 198.169 183.451,198.328 184.000,198.496 184.000 C 198.663 184.000,198.800 184.191,198.800 184.424 C 198.800 184.657,198.592 184.719,198.338 184.562 C 198.050 184.384,197.985 184.452,198.166 184.745 C 198.325 185.002,198.610 185.117,198.800 185.000 C 198.990 184.883,199.248 184.955,199.375 185.160 C 199.502 185.365,200.204 185.486,200.936 185.428 C 202.134 185.333,202.248 185.414,202.088 186.254 C 201.989 186.767,202.048 187.505,202.218 187.893 C 202.388 188.282,202.498 188.735,202.464 188.900 C 202.429 189.065,202.535 189.179,202.700 189.153 C 202.865 189.127,203.090 189.146,203.200 189.196 C 203.310 189.247,203.994 189.337,204.721 189.398 C 206.309 189.531,206.414 189.620,206.557 190.957 C 206.618 191.531,206.788 192.121,206.934 192.267 C 207.383 192.716,207.229 193.265,206.738 192.962 C 206.480 192.802,206.384 192.851,206.521 193.072 C 206.655 193.289,207.528 193.497,208.459 193.534 C 210.391 193.610,210.897 194.130,210.568 195.700 C 210.422 196.391,210.506 196.800,210.792 196.800 C 211.042 196.800,211.119 197.008,210.962 197.262 C 210.791 197.537,210.851 197.615,211.111 197.455 C 211.349 197.308,211.648 197.355,211.775 197.560 C 211.902 197.765,212.635 197.883,213.403 197.822 C 214.783 197.713,215.160 198.324,214.833 200.142 C 214.800 200.330,215.003 200.770,215.286 201.119 C 215.713 201.646,215.705 201.696,215.238 201.415 C 214.882 201.200,214.769 201.227,214.930 201.487 C 215.070 201.713,216.041 201.915,217.088 201.936 C 218.135 201.957,219.053 202.160,219.129 202.387 C 219.373 203.120,222.936 202.822,225.264 201.874 C 227.242 201.068,228.883 199.604,238.264 190.273 C 253.110 175.507,252.894 175.713,253.900 175.413 C 254.395 175.266,254.800 174.990,254.800 174.800 C 254.800 174.610,255.115 174.354,255.500 174.231 C 255.885 174.109,256.650 173.602,257.200 173.104 C 258.294 172.115,259.358 171.581,261.800 170.797 C 262.680 170.514,264.675 169.679,266.234 168.942 C 271.407 166.493,281.473 166.616,286.989 169.195 C 289.482 170.361,289.931 170.447,291.965 170.157 C 296.118 169.563,297.600 170.060,297.600 172.049 C 297.600 173.465,301.139 173.901,301.261 172.500 C 301.374 171.197,301.421 171.001,301.731 170.505 C 301.950 170.155,301.839 170.087,301.355 170.273 C 300.907 170.444,300.764 170.382,300.943 170.093 C 301.126 169.796,300.867 169.713,300.158 169.842 C 298.743 170.099,297.473 168.962,297.785 167.718 C 297.918 167.186,297.834 166.800,297.584 166.800 C 297.347 166.800,297.256 166.632,297.383 166.428 C 297.509 166.223,297.427 165.940,297.200 165.800 C 296.973 165.660,296.863 165.422,296.955 165.272 C 297.048 165.123,296.411 164.976,295.541 164.947 C 293.622 164.882,293.660 164.917,293.538 163.111 C 293.484 162.308,293.284 161.748,293.093 161.866 C 292.902 161.984,292.644 161.691,292.520 161.215 C 292.332 160.496,292.049 160.371,290.847 160.475 C 289.432 160.597,289.401 160.569,289.425 159.200 C 289.450 157.798,287.695 156.047,286.812 156.593 C 285.963 157.118,285.160 156.291,285.411 155.149 C 285.574 154.409,285.502 154.000,285.208 154.000 C 284.958 154.000,284.864 153.820,285.000 153.600 C 285.136 153.380,284.989 153.200,284.673 153.200 C 284.357 153.200,283.874 152.930,283.600 152.600 C 283.326 152.270,282.600 152.000,281.986 152.000 C 281.044 152.000,280.887 151.850,280.977 151.033 C 281.126 149.674,279.681 148.200,278.200 148.200 C 277.139 148.200,277.009 148.072,277.075 147.100 C 277.117 146.495,276.971 146.000,276.752 146.000 C 276.532 146.000,276.452 145.840,276.573 145.644 C 276.892 145.127,275.001 144.000,273.814 144.000 C 272.853 144.000,272.449 142.874,272.763 141.070 C 272.794 140.889,272.623 140.862,272.383 141.011 C 272.135 141.164,271.849 140.909,271.721 140.420 C 271.542 139.734,271.283 139.604,270.448 139.779 C 269.085 140.065,268.472 139.636,268.476 138.399 C 268.482 136.204,268.221 135.866,266.434 135.765 C 264.382 135.649,264.460 135.720,264.336 133.885 C 264.281 133.061,264.025 132.400,263.761 132.400 C 263.500 132.400,263.174 132.110,263.038 131.755 C 262.864 131.300,262.441 131.162,261.600 131.285 C 260.305 131.475,259.875 130.887,260.174 129.334 C 260.350 128.421,258.675 127.400,257.000 127.400 C 256.376 127.400,256.217 127.158,256.275 126.300 C 256.317 125.695,256.182 125.200,255.975 125.200 C 255.769 125.200,255.600 124.951,255.600 124.646 C 255.600 124.113,253.351 122.800,252.440 122.800 C 252.198 122.800,251.978 122.530,251.950 122.200 C 251.848 120.972,251.785 120.809,251.125 120.038 C 250.643 119.474,250.586 119.189,250.925 119.036 C 251.186 118.919,250.860 118.845,250.200 118.872 C 247.722 118.973,247.495 118.873,247.764 117.800 C 247.916 117.197,247.844 116.800,247.584 116.800 C 247.347 116.800,247.256 116.632,247.383 116.428 C 247.509 116.223,247.427 115.940,247.200 115.800 C 246.973 115.660,246.863 115.422,246.955 115.272 C 247.048 115.123,246.411 114.976,245.541 114.947 C 243.622 114.882,243.660 114.917,243.538 113.111 C 243.484 112.308,243.284 111.748,243.093 111.866 C 242.902 111.984,242.644 111.691,242.520 111.215 C 242.332 110.496,242.049 110.371,240.847 110.475 C 239.432 110.597,239.401 110.569,239.425 109.200 C 239.450 107.798,237.695 106.047,236.812 106.593 C 235.963 107.118,235.160 106.291,235.411 105.149 C 235.574 104.409,235.502 104.000,235.208 104.000 C 234.958 104.000,234.864 103.820,235.000 103.600 C 235.136 103.380,234.989 103.200,234.673 103.200 C 234.357 103.200,233.874 102.930,233.600 102.600 C 233.326 102.270,232.600 102.000,231.986 102.000 C 231.044 102.000,230.887 101.850,230.977 101.033 C 231.126 99.674,229.681 98.200,228.200 98.200 C 227.139 98.200,227.009 98.072,227.075 97.100 C 227.117 96.495,226.971 96.000,226.752 96.000 C 226.532 96.000,226.452 95.840,226.573 95.644 C 226.892 95.127,225.001 94.000,223.814 94.000 C 222.853 94.000,222.449 92.874,222.763 91.070 C 222.794 90.889,222.623 90.862,222.383 91.011 C 222.135 91.164,221.849 90.909,221.721 90.420 C 221.542 89.734,221.283 89.604,220.448 89.779 C 219.085 90.065,218.472 89.636,218.476 88.399 C 218.482 86.204,218.221 85.866,216.434 85.765 C 214.382 85.649,214.460 85.720,214.336 83.885 C 214.281 83.061,214.025 82.400,213.761 82.400 C 213.500 82.400,213.174 82.110,213.038 81.755 C 212.864 81.300,212.441 81.162,211.600 81.285 C 210.305 81.475,209.875 80.887,210.174 79.334 C 210.350 78.421,208.675 77.400,207.000 77.400 C 206.376 77.400,206.217 77.158,206.275 76.300 C 206.317 75.695,206.182 75.200,205.975 75.200 C 205.769 75.200,205.600 74.951,205.600 74.646 C 205.600 74.113,203.351 72.800,202.440 72.800 C 202.198 72.800,201.978 72.530,201.950 72.200 C 201.848 70.972,201.785 70.809,201.125 70.038 C 200.643 69.474,200.586 69.189,200.925 69.036 C 201.186 68.919,200.860 68.845,200.200 68.872 C 197.722 68.973,197.495 68.873,197.764 67.800 C 197.916 67.197,197.844 66.800,197.584 66.800 C 197.347 66.800,197.256 66.632,197.383 66.428 C 197.509 66.223,197.427 65.940,197.200 65.800 C 196.973 65.660,196.863 65.422,196.955 65.272 C 197.048 65.123,196.411 64.976,195.541 64.947 C 193.622 64.882,193.660 64.917,193.538 63.111 C 193.484 62.308,193.284 61.748,193.093 61.866 C 192.902 61.984,192.644 61.691,192.520 61.215 C 192.332 60.496,192.049 60.371,190.847 60.475 C 189.432 60.597,189.401 60.569,189.425 59.200 C 189.450 57.798,187.695 56.047,186.812 56.593 C 185.963 57.118,185.160 56.291,185.411 55.149 C 185.574 54.409,185.502 54.000,185.208 54.000 C 184.958 54.000,184.864 53.820,185.000 53.600 C 185.136 53.380,184.989 53.200,184.673 53.200 C 184.357 53.200,183.874 52.930,183.600 52.600 C 183.326 52.270,182.600 52.000,181.986 52.000 C 181.044 52.000,180.887 51.850,180.977 51.033 C 181.126 49.674,179.681 48.200,178.200 48.200 C 177.139 48.200,177.009 48.072,177.075 47.100 C 177.117 46.495,176.971 46.000,176.752 46.000 C 176.532 46.000,176.452 45.840,176.573 45.644 C 176.892 45.127,175.001 44.000,173.814 44.000 C 173.138 44.000,172.780 43.767,172.739 43.300 C 172.706 42.915,172.658 42.388,172.634 42.128 C 172.610 41.869,172.469 41.536,172.322 41.389 C 172.175 41.242,172.150 40.824,172.265 40.461 C 172.389 40.072,172.337 39.964,172.138 40.200 C 171.604 40.832,170.800 40.855,170.800 40.237 C 170.800 39.805,170.088 39.667,167.739 39.643 C 164.146 39.606,164.467 39.787,164.346 37.728 C 164.226 35.705,163.917 35.626,156.000 35.573 C 153.030 35.553,150.825 35.446,151.100 35.335 C 151.828 35.042,151.712 33.827,150.856 32.770 C 149.904 31.594,143.863 31.192,141.724 32.163 M148.539 32.300 C 148.642 32.465,147.528 32.577,146.063 32.548 L 143.400 32.496 145.800 32.781 L 148.200 33.066 146.133 33.133 C 143.692 33.212,142.444 32.872,143.266 32.350 C 143.928 31.931,148.284 31.889,148.539 32.300 M142.008 33.390 C 141.730 33.726,141.316 34.000,141.089 34.000 C 140.862 34.000,141.003 33.639,141.402 33.198 C 142.229 32.283,142.781 32.459,142.008 33.390 M150.932 34.232 C 150.770 34.656,150.546 34.575,149.996 33.896 C 149.599 33.405,149.365 32.856,149.477 32.676 C 149.800 32.153,151.169 33.616,150.932 34.232 M112.042 49.718 C 111.528 50.232,111.007 49.835,111.388 49.220 C 111.535 48.982,111.839 48.900,112.062 49.039 C 112.336 49.207,112.329 49.431,112.042 49.718 M109.220 57.376 C 108.957 57.693,108.453 57.842,108.101 57.707 C 107.633 57.527,107.527 57.633,107.707 58.101 C 107.842 58.453,107.693 58.957,107.376 59.220 C 106.968 59.559,106.800 59.567,106.800 59.249 C 106.800 59.002,106.960 58.800,107.156 58.800 C 107.351 58.800,107.486 58.485,107.456 58.100 C 107.421 57.661,107.661 57.421,108.100 57.456 C 108.485 57.486,108.800 57.351,108.800 57.156 C 108.800 56.960,109.002 56.800,109.249 56.800 C 109.567 56.800,109.559 56.968,109.220 57.376 " stroke="none" fill="#fcbc04" fill-rule="evenodd"></path><path id="path1" d="M218.799 204.300 C 218.799 205.378,218.841 205.397,220.918 205.268 C 223.489 205.107,222.248 204.065,237.846 219.500 C 244.127 225.715,249.488 230.800,249.761 230.800 C 250.033 230.800,251.009 231.639,251.930 232.663 C 253.174 234.047,253.990 234.589,255.102 234.770 C 256.262 234.958,256.819 235.351,257.569 236.510 C 258.665 238.203,259.559 238.536,264.714 239.172 C 267.330 239.495,268.335 239.815,269.484 240.691 C 270.897 241.768,271.085 241.800,276.003 241.800 L 281.067 241.800 282.594 240.459 L 284.121 239.118 290.584 239.287 C 297.755 239.473,297.743 239.477,297.910 236.921 C 298.016 235.290,297.977 235.231,296.510 234.824 C 294.202 234.183,293.643 234.295,292.269 235.674 C 291.036 236.912,290.866 236.957,286.329 237.266 C 283.760 237.440,280.880 237.762,279.929 237.982 C 277.738 238.487,274.047 238.509,271.877 238.029 C 270.955 237.826,268.638 237.449,266.729 237.192 C 262.284 236.595,260.909 236.101,259.238 234.500 C 258.492 233.785,257.621 233.200,257.302 233.200 C 256.471 233.200,255.004 232.076,251.204 228.527 C 246.414 224.053,229.031 206.665,228.289 205.605 C 226.710 203.352,218.800 202.264,218.799 204.300 " stroke="none" fill="#7c1c7c" fill-rule="evenodd"></path><path id="path2" d="M143.266 32.350 C 142.444 32.872,143.692 33.212,146.133 33.133 L 148.200 33.066 145.800 32.781 L 143.400 32.496 146.063 32.548 C 147.528 32.577,148.642 32.465,148.539 32.300 C 148.284 31.889,143.928 31.931,143.266 32.350 M141.402 33.198 C 141.003 33.639,140.862 34.000,141.089 34.000 C 141.592 34.000,142.590 32.857,142.321 32.588 C 142.215 32.482,141.802 32.756,141.402 33.198 M149.477 32.676 C 149.365 32.856,149.586 33.389,149.967 33.860 L 150.660 34.716 151.183 33.858 C 151.470 33.386,151.561 33.135,151.385 33.301 C 151.209 33.466,150.753 33.320,150.372 32.975 C 149.991 32.630,149.588 32.496,149.477 32.676 M119.500 40.433 C 118.918 41.070,118.901 41.200,119.400 41.200 C 119.730 41.200,120.000 41.009,120.000 40.776 C 120.000 40.543,120.180 40.464,120.400 40.600 C 120.620 40.736,120.800 40.567,120.800 40.224 C 120.800 39.412,120.369 39.482,119.500 40.433 M170.800 40.267 C 170.800 40.633,170.920 40.813,171.068 40.666 C 171.215 40.519,171.665 40.697,172.068 41.061 C 172.470 41.426,172.800 41.582,172.800 41.409 C 172.800 41.114,171.242 39.600,170.939 39.600 C 170.862 39.600,170.800 39.900,170.800 40.267 M115.429 44.629 C 115.083 44.974,114.805 45.469,114.812 45.729 C 114.819 45.988,115.005 45.891,115.225 45.513 C 115.445 45.135,115.935 44.645,116.313 44.425 C 116.691 44.205,116.788 44.019,116.529 44.012 C 116.269 44.005,115.774 44.283,115.429 44.629 M175.800 44.651 C 176.240 44.984,176.555 45.424,176.500 45.628 C 176.445 45.833,176.599 46.000,176.843 46.000 C 177.086 46.000,177.176 45.715,177.043 45.367 C 176.909 45.019,176.800 44.608,176.800 44.452 C 176.800 44.297,176.395 44.142,175.900 44.108 C 175.012 44.047,175.011 44.054,175.800 44.651 M179.600 48.229 C 179.600 48.342,179.949 48.808,180.375 49.266 L 181.151 50.098 180.936 49.277 C 180.750 48.567,179.600 47.665,179.600 48.229 M111.007 49.987 C 110.434 51.095,110.435 51.200,111.023 51.200 C 111.377 51.200,111.591 50.975,111.498 50.700 C 111.406 50.425,111.598 50.002,111.925 49.761 C 112.336 49.459,112.383 49.237,112.078 49.048 C 111.821 48.889,111.370 49.285,111.007 49.987 M183.549 52.535 C 184.180 53.300,185.200 53.423,185.200 52.733 C 185.200 52.477,185.086 52.380,184.947 52.519 C 184.808 52.658,184.313 52.569,183.847 52.320 C 183.084 51.914,183.054 51.935,183.549 52.535 M188.176 57.023 C 189.139 57.738,189.638 57.764,189.377 57.084 C 189.268 56.801,188.779 56.541,188.290 56.508 C 187.424 56.448,187.421 56.462,188.176 57.023 M108.800 57.156 C 108.800 57.351,108.485 57.486,108.100 57.456 C 107.661 57.421,107.421 57.661,107.456 58.100 C 107.486 58.485,107.351 58.800,107.156 58.800 C 106.960 58.800,106.800 59.002,106.800 59.249 C 106.800 59.567,106.968 59.559,107.376 59.220 C 107.693 58.957,107.842 58.453,107.707 58.101 C 107.527 57.633,107.633 57.527,108.101 57.707 C 108.453 57.842,108.957 57.693,109.220 57.376 C 109.559 56.968,109.567 56.800,109.249 56.800 C 109.002 56.800,108.800 56.960,108.800 57.156 M192.400 60.964 C 192.400 61.879,193.423 62.488,193.489 61.612 C 193.520 61.201,193.288 60.766,192.973 60.645 C 192.651 60.521,192.400 60.661,192.400 60.964 M196.747 65.448 C 197.223 65.782,197.510 66.222,197.383 66.427 C 197.256 66.632,197.363 66.800,197.619 66.800 C 197.880 66.800,197.979 66.521,197.843 66.167 C 197.709 65.819,197.600 65.408,197.600 65.252 C 197.600 65.097,197.213 64.941,196.740 64.905 L 195.880 64.841 196.747 65.448 M201.093 70.000 C 201.470 70.440,201.811 70.800,201.851 70.800 C 201.892 70.800,201.831 70.440,201.716 70.000 C 201.601 69.560,201.259 69.200,200.957 69.200 C 200.537 69.200,200.568 69.387,201.093 70.000 M204.900 73.767 C 205.285 74.054,205.600 74.493,205.600 74.744 C 205.600 74.995,205.799 75.200,206.043 75.200 C 206.286 75.200,206.376 74.915,206.243 74.567 C 206.109 74.219,206.000 73.808,206.000 73.652 C 206.000 73.497,205.595 73.342,205.100 73.308 C 204.272 73.251,204.256 73.288,204.900 73.767 M208.800 77.798 C 210.054 78.518,210.429 78.542,210.178 77.886 C 210.069 77.604,209.490 77.339,208.890 77.299 L 207.800 77.224 208.800 77.798 M213.034 81.743 C 213.321 82.491,214.400 82.641,214.400 81.933 C 214.400 81.677,214.282 81.585,214.137 81.730 C 213.992 81.875,213.628 81.789,213.328 81.540 C 212.896 81.182,212.835 81.225,213.034 81.743 M217.743 86.548 C 218.653 87.496,219.226 87.595,218.460 86.673 C 218.211 86.372,218.088 86.046,218.186 85.947 C 218.285 85.848,218.033 85.743,217.626 85.712 C 216.946 85.661,216.956 85.729,217.743 86.548 M221.600 90.164 C 221.600 91.079,222.623 91.688,222.689 90.812 C 222.720 90.401,222.488 89.966,222.173 89.845 C 221.851 89.721,221.600 89.861,221.600 90.164 M225.800 94.651 C 226.240 94.984,226.555 95.424,226.500 95.628 C 226.445 95.833,226.599 96.000,226.843 96.000 C 227.086 96.000,227.176 95.715,227.043 95.367 C 226.909 95.019,226.800 94.608,226.800 94.452 C 226.800 94.297,226.395 94.142,225.900 94.108 C 225.012 94.047,225.011 94.054,225.800 94.651 M110.970 96.678 C 111.029 97.075,111.209 97.370,111.371 97.333 C 111.979 97.196,112.002 96.900,111.442 96.435 C 110.972 96.045,110.884 96.090,110.970 96.678 M229.600 98.229 C 229.600 98.342,229.949 98.808,230.375 99.266 L 231.151 100.098 230.936 99.277 C 230.750 98.567,229.600 97.665,229.600 98.229 M233.549 102.535 C 234.180 103.300,235.200 103.423,235.200 102.733 C 235.200 102.477,235.086 102.380,234.947 102.519 C 234.808 102.658,234.313 102.569,233.847 102.320 C 233.084 101.914,233.054 101.935,233.549 102.535 M238.176 107.023 C 239.139 107.738,239.638 107.764,239.377 107.084 C 239.268 106.801,238.779 106.541,238.290 106.508 C 237.424 106.448,237.421 106.462,238.176 107.023 M123.206 109.100 C 123.217 109.614,123.774 110.194,124.389 110.330 C 124.828 110.426,124.787 110.248,124.227 109.630 C 123.423 108.741,123.196 108.624,123.206 109.100 M242.400 110.964 C 242.400 111.879,243.423 112.488,243.489 111.612 C 243.520 111.201,243.288 110.766,242.973 110.645 C 242.651 110.521,242.400 110.661,242.400 110.964 M246.747 115.448 C 247.223 115.782,247.510 116.222,247.383 116.427 C 247.256 116.632,247.363 116.800,247.619 116.800 C 247.880 116.800,247.979 116.521,247.843 116.167 C 247.709 115.819,247.600 115.408,247.600 115.252 C 247.600 115.097,247.213 114.941,246.740 114.905 L 245.880 114.841 246.747 115.448 M131.200 117.384 C 131.200 117.699,132.466 118.800,132.829 118.800 C 133.033 118.800,133.200 118.609,133.200 118.376 C 133.200 118.143,133.020 118.064,132.800 118.200 C 132.580 118.336,132.400 118.276,132.400 118.066 C 132.400 117.857,132.130 117.582,131.800 117.455 C 131.470 117.329,131.200 117.297,131.200 117.384 M251.093 120.000 C 251.470 120.440,251.811 120.800,251.851 120.800 C 251.892 120.800,251.831 120.440,251.716 120.000 C 251.601 119.560,251.259 119.200,250.957 119.200 C 250.537 119.200,250.568 119.387,251.093 120.000 M135.612 121.400 C 135.612 122.076,136.162 122.595,137.000 122.710 L 137.800 122.820 137.000 122.344 C 136.560 122.082,136.068 121.673,135.906 121.434 C 135.733 121.178,135.612 121.164,135.612 121.400 M254.900 123.767 C 255.285 124.054,255.600 124.493,255.600 124.744 C 255.600 124.995,255.799 125.200,256.043 125.200 C 256.286 125.200,256.376 124.915,256.243 124.567 C 256.109 124.219,256.000 123.808,256.000 123.652 C 256.000 123.497,255.595 123.342,255.100 123.308 C 254.272 123.251,254.256 123.288,254.900 123.767 M139.895 125.838 C 139.740 125.994,139.925 126.358,140.306 126.648 C 141.174 127.307,141.600 127.335,141.600 126.733 C 141.600 126.477,141.483 126.384,141.340 126.527 C 141.196 126.670,140.876 126.510,140.629 126.171 C 140.381 125.833,140.051 125.683,139.895 125.838 M258.800 127.798 C 260.054 128.518,260.429 128.542,260.178 127.886 C 260.069 127.604,259.490 127.339,258.890 127.299 L 257.800 127.224 258.800 127.798 M144.012 129.800 C 144.012 130.529,144.587 130.999,145.600 131.096 L 146.600 131.193 145.611 130.776 C 145.068 130.547,144.485 130.144,144.317 129.880 C 144.150 129.616,144.012 129.580,144.012 129.800 M263.034 131.743 C 263.321 132.491,264.400 132.641,264.400 131.933 C 264.400 131.677,264.282 131.585,264.137 131.730 C 263.992 131.875,263.628 131.789,263.328 131.540 C 262.896 131.182,262.835 131.225,263.034 131.743 M267.743 136.548 C 268.653 137.496,269.226 137.595,268.460 136.673 C 268.211 136.372,268.088 136.046,268.186 135.947 C 268.285 135.848,268.033 135.743,267.626 135.712 C 266.946 135.661,266.956 135.729,267.743 136.548 M152.026 137.800 C 152.025 138.409,153.030 139.600,153.544 139.600 C 153.795 139.600,154.000 139.390,154.000 139.133 C 154.000 138.877,153.888 138.779,153.750 138.916 C 153.613 139.054,153.169 138.769,152.764 138.283 C 152.358 137.797,152.026 137.580,152.026 137.800 M271.600 140.164 C 271.600 141.079,272.623 141.688,272.689 140.812 C 272.720 140.401,272.488 139.966,272.173 139.845 C 271.851 139.721,271.600 139.861,271.600 140.164 M156.400 142.386 C 156.400 142.598,156.805 142.984,157.300 143.244 C 158.195 143.714,158.196 143.712,157.438 142.858 C 156.591 141.905,156.400 141.818,156.400 142.386 M275.800 144.651 C 276.240 144.984,276.555 145.424,276.500 145.628 C 276.445 145.833,276.599 146.000,276.843 146.000 C 277.086 146.000,277.176 145.715,277.043 145.367 C 276.909 145.019,276.800 144.608,276.800 144.452 C 276.800 144.297,276.395 144.142,275.900 144.108 C 275.012 144.047,275.011 144.054,275.800 144.651 M160.695 146.638 C 160.540 146.794,160.725 147.158,161.106 147.448 C 161.974 148.107,162.400 148.135,162.400 147.533 C 162.400 147.277,162.283 147.184,162.140 147.327 C 161.996 147.470,161.676 147.310,161.429 146.971 C 161.181 146.633,160.851 146.483,160.695 146.638 M279.600 148.229 C 279.600 148.342,279.949 148.808,280.375 149.266 L 281.151 150.098 280.936 149.277 C 280.750 148.567,279.600 147.665,279.600 148.229 M283.549 152.535 C 284.180 153.300,285.200 153.423,285.200 152.733 C 285.200 152.477,285.086 152.380,284.947 152.519 C 284.808 152.658,284.313 152.569,283.847 152.320 C 283.084 151.914,283.054 151.935,283.549 152.535 M288.176 157.023 C 289.139 157.738,289.638 157.764,289.377 157.084 C 289.268 156.801,288.779 156.541,288.290 156.508 C 287.424 156.448,287.421 156.462,288.176 157.023 M292.400 160.964 C 292.400 161.879,293.423 162.488,293.489 161.612 C 293.520 161.201,293.288 160.766,292.973 160.645 C 292.651 160.521,292.400 160.661,292.400 160.964 M296.747 165.448 C 297.223 165.782,297.510 166.222,297.383 166.427 C 297.256 166.632,297.363 166.800,297.619 166.800 C 297.880 166.800,297.979 166.521,297.843 166.167 C 297.709 165.819,297.600 165.408,297.600 165.252 C 297.600 165.097,297.213 164.941,296.740 164.905 L 295.880 164.841 296.747 165.448 M270.400 167.604 C 269.190 167.769,267.120 168.443,265.800 169.101 C 264.480 169.760,262.680 170.526,261.800 170.805 C 259.378 171.571,258.299 172.110,257.200 173.104 C 256.650 173.602,255.885 174.109,255.500 174.231 C 255.115 174.354,254.800 174.610,254.800 174.800 C 254.800 174.990,254.395 175.266,253.900 175.413 C 252.894 175.713,253.110 175.507,238.264 190.273 C 228.883 199.604,227.242 201.068,225.264 201.874 C 222.795 202.880,219.393 203.114,219.065 202.300 C 218.944 202.001,218.850 202.082,218.832 202.500 C 218.805 203.083,219.156 203.200,220.938 203.200 C 223.665 203.200,227.478 204.447,228.289 205.605 C 229.031 206.665,246.414 224.053,251.204 228.527 C 255.004 232.076,256.471 233.200,257.302 233.200 C 257.621 233.200,258.492 233.785,259.238 234.500 C 260.909 236.101,262.284 236.595,266.729 237.192 C 268.638 237.449,270.955 237.826,271.877 238.029 C 274.047 238.509,277.738 238.487,279.929 237.982 C 280.880 237.762,283.760 237.440,286.329 237.266 C 290.866 236.957,291.036 236.912,292.269 235.674 C 293.699 234.239,294.403 234.139,296.963 235.008 C 300.572 236.233,301.984 235.648,301.994 232.921 L 302.000 231.242 304.100 231.121 L 306.200 231.000 306.322 229.100 L 306.444 227.200 307.942 227.200 C 309.905 227.200,310.400 226.632,310.400 224.378 C 310.400 222.620,310.473 222.495,311.700 222.144 C 314.179 221.434,314.200 221.267,314.200 202.600 L 314.200 185.800 312.347 185.680 L 310.494 185.560 310.327 181.753 C 310.145 177.579,309.935 177.217,307.700 177.206 C 306.551 177.201,306.399 177.072,306.395 176.100 C 306.383 173.724,306.055 173.310,303.966 173.033 C 302.128 172.789,301.997 172.695,301.950 171.586 C 301.859 169.424,301.651 169.056,300.479 168.980 C 298.224 168.836,297.998 168.756,297.968 168.100 C 297.948 167.645,297.864 167.583,297.727 167.923 C 297.344 168.881,298.828 170.043,300.173 169.837 C 301.276 169.668,301.327 169.703,300.676 170.186 C 300.219 170.525,300.109 170.820,300.376 170.985 C 300.609 171.129,300.800 171.057,300.800 170.824 C 300.800 170.591,300.955 170.400,301.145 170.400 C 301.335 170.400,301.448 170.805,301.396 171.300 C 301.345 171.795,301.279 172.425,301.251 172.700 C 301.126 173.924,297.600 173.295,297.600 172.049 C 297.600 170.060,296.118 169.563,291.965 170.157 C 289.931 170.447,289.482 170.360,286.995 169.198 C 282.980 167.321,276.826 166.730,270.400 167.604 " stroke="none" fill="#fc5c04" fill-rule="evenodd"></path><path id="path3" d="M219.067 205.467 C 218.501 206.032,218.872 206.203,220.857 206.290 C 223.291 206.396,223.063 206.220,223.343 208.200 C 223.468 209.080,223.577 209.834,223.585 209.875 C 223.593 209.917,224.410 210.072,225.400 210.221 C 226.939 210.452,227.200 210.626,227.200 211.419 C 227.200 213.643,227.857 214.400,229.790 214.400 L 231.600 214.400 231.600 216.210 C 231.600 218.153,232.356 218.800,234.626 218.800 C 235.391 218.800,235.600 219.009,235.600 219.774 C 235.600 222.044,236.247 222.800,238.190 222.800 L 240.000 222.800 240.000 224.536 C 240.000 226.414,240.891 227.200,243.019 227.200 C 243.768 227.200,244.001 227.413,244.005 228.100 C 244.018 230.206,244.425 230.755,246.168 231.016 C 247.749 231.253,247.881 231.374,248.313 232.991 C 248.794 234.789,250.021 235.600,252.260 235.600 C 252.777 235.600,253.200 235.735,253.200 235.900 C 253.201 236.501,255.110 238.400,255.713 238.400 C 256.054 238.400,256.408 238.625,256.499 238.900 C 256.612 239.239,258.003 239.464,260.832 239.600 L 265.000 239.800 265.121 241.245 C 265.213 242.350,265.486 242.802,266.279 243.163 C 267.529 243.733,285.727 243.729,285.375 243.160 C 285.253 242.962,285.478 242.797,285.876 242.794 C 286.490 242.789,286.509 242.729,286.000 242.400 C 285.517 242.088,285.581 242.011,286.324 242.006 C 286.921 242.002,287.146 242.163,286.962 242.462 C 286.785 242.747,286.852 242.815,287.136 242.640 C 287.389 242.483,287.806 241.960,288.063 241.478 C 288.503 240.653,288.485 240.636,287.770 241.200 C 287.036 241.779,287.032 241.765,287.653 240.800 C 288.189 239.968,288.660 239.781,290.449 239.686 C 294.451 239.473,293.823 239.293,288.914 239.246 L 284.028 239.200 282.548 240.500 L 281.067 241.800 276.003 241.800 C 271.085 241.800,270.897 241.768,269.484 240.691 C 268.335 239.815,267.330 239.495,264.714 239.172 C 259.559 238.536,258.665 238.203,257.569 236.510 C 256.819 235.351,256.262 234.958,255.102 234.770 C 253.990 234.589,253.174 234.047,251.930 232.663 C 251.009 231.639,250.033 230.800,249.761 230.800 C 249.488 230.800,244.127 225.715,237.846 219.500 C 222.614 204.426,223.514 205.200,221.218 205.200 C 220.182 205.200,219.213 205.320,219.067 205.467 M117.067 308.667 C 116.645 309.088,116.756 309.600,117.269 309.600 C 117.526 309.600,118.111 309.915,118.569 310.300 C 119.388 310.990,119.390 310.988,118.700 310.169 C 118.315 309.711,118.000 309.126,118.000 308.869 C 118.000 308.356,117.488 308.245,117.067 308.667 M109.766 318.455 C 109.585 318.748,109.650 318.816,109.938 318.638 C 110.192 318.481,110.400 318.524,110.400 318.734 C 110.400 318.943,110.100 319.230,109.733 319.370 C 109.259 319.552,109.190 319.750,109.495 320.055 C 109.799 320.359,110.137 320.359,110.661 320.054 C 111.068 319.818,111.181 319.619,110.913 319.612 C 110.644 319.605,110.522 319.348,110.640 319.040 C 110.911 318.333,110.155 317.826,109.766 318.455 M108.144 320.710 C 108.292 320.949,108.230 321.258,108.007 321.396 C 107.783 321.534,107.605 321.862,107.612 322.124 C 107.619 322.386,107.808 322.285,108.032 321.900 C 108.256 321.515,108.882 321.200,109.423 321.200 C 110.296 321.200,110.352 321.287,109.923 321.974 C 109.416 322.787,108.589 322.690,109.058 321.872 C 109.206 321.613,109.194 321.520,109.031 321.667 C 108.867 321.813,108.733 322.083,108.733 322.267 C 108.732 322.450,108.563 322.803,108.358 323.051 C 108.104 323.356,108.253 323.573,108.816 323.720 C 109.419 323.878,109.742 323.698,109.986 323.069 C 110.279 322.315,110.321 322.367,110.302 323.465 C 110.285 324.476,110.131 324.702,109.540 324.588 C 109.133 324.510,108.800 324.631,108.800 324.856 C 108.800 325.082,109.025 325.191,109.300 325.098 C 109.575 325.006,109.998 325.198,110.239 325.526 C 110.836 326.336,111.716 325.766,111.242 324.876 C 110.571 323.618,110.548 321.787,111.204 321.927 C 111.725 322.037,111.724 321.976,111.195 321.435 C 110.469 320.695,107.733 320.044,108.144 320.710 M108.131 346.051 C 108.245 346.409,108.127 346.931,107.869 347.210 C 107.503 347.606,107.525 347.646,107.968 347.393 C 108.375 347.161,108.471 347.237,108.308 347.663 C 108.180 347.996,108.395 348.454,108.797 348.705 C 109.631 349.226,110.172 348.890,109.603 348.203 C 109.336 347.882,109.386 347.733,109.761 347.733 C 110.200 347.733,110.347 348.646,109.981 349.100 C 109.936 349.155,109.878 349.380,109.850 349.600 C 109.822 349.820,109.620 349.955,109.400 349.900 C 109.180 349.845,109.045 349.665,109.100 349.500 C 109.155 349.335,109.020 349.200,108.800 349.200 C 108.283 349.200,108.296 349.444,108.861 350.349 C 109.279 351.019,109.389 351.030,110.041 350.472 C 110.436 350.134,110.655 349.689,110.528 349.484 C 110.401 349.279,110.471 348.996,110.682 348.855 C 110.921 348.697,110.932 348.089,110.711 347.258 C 110.379 346.004,110.309 345.958,109.646 346.558 C 108.906 347.228,108.209 347.433,108.550 346.881 C 108.658 346.705,108.562 346.300,108.336 345.981 C 107.991 345.495,107.958 345.506,108.131 346.051 M168.292 359.841 C 168.172 359.962,168.221 360.577,168.402 361.208 C 168.595 361.881,168.576 362.436,168.356 362.548 C 168.149 362.654,168.192 362.699,168.452 362.649 C 168.712 362.599,168.941 361.966,168.962 361.241 C 168.999 359.955,168.733 359.400,168.292 359.841 M163.859 364.495 C 163.981 364.693,164.333 364.758,164.640 364.640 C 164.948 364.522,165.200 364.588,165.200 364.786 C 165.200 364.984,164.795 365.221,164.300 365.312 C 163.517 365.456,163.530 365.472,164.400 365.439 C 165.642 365.391,165.748 364.292,164.519 364.201 C 164.034 364.166,163.737 364.298,163.859 364.495 M123.196 366.196 C 123.468 366.523,123.853 366.691,124.052 366.568 C 124.562 366.252,124.074 365.600,123.327 365.600 C 122.819 365.600,122.794 365.711,123.196 366.196 M126.704 367.812 C 126.808 368.355,127.035 368.800,127.209 368.800 C 127.580 368.800,127.240 367.272,126.810 367.006 C 126.648 366.906,126.601 367.269,126.704 367.812 M159.267 367.600 C 159.352 367.985,159.149 368.158,158.700 368.082 C 158.315 368.018,157.997 368.198,157.994 368.482 C 157.989 368.879,157.906 368.870,157.637 368.446 C 157.137 367.656,155.170 368.229,154.905 369.241 C 154.777 369.731,154.473 369.960,154.127 369.827 C 153.814 369.707,153.659 369.772,153.782 369.970 C 153.905 370.169,153.779 370.412,153.502 370.510 C 153.226 370.608,153.688 370.657,154.530 370.620 C 155.371 370.582,156.217 370.297,156.409 369.985 C 156.685 369.539,156.847 369.629,157.176 370.410 C 157.556 371.314,157.584 371.323,157.496 370.518 C 157.443 370.033,157.580 369.639,157.800 369.642 C 158.020 369.644,158.181 369.868,158.159 370.138 C 158.136 370.408,158.451 370.629,158.859 370.629 C 159.266 370.629,159.600 370.487,159.600 370.314 C 159.600 370.141,159.420 370.000,159.200 370.000 C 158.980 370.000,158.800 369.800,158.800 369.557 C 158.800 369.289,159.178 369.208,159.754 369.353 C 160.358 369.504,160.890 369.373,161.203 368.996 C 161.475 368.668,161.564 368.400,161.400 368.400 C 161.236 368.400,161.344 368.085,161.639 367.700 C 161.934 367.315,161.686 367.436,161.088 367.970 C 160.490 368.503,159.978 368.818,159.950 368.670 C 159.923 368.521,159.878 368.235,159.850 368.033 C 159.822 367.832,159.650 367.517,159.467 367.333 C 159.283 367.150,159.193 367.270,159.267 367.600 M128.935 368.224 C 128.807 368.560,128.813 368.947,128.951 369.084 C 129.088 369.221,129.200 369.023,129.200 368.643 C 129.200 368.263,129.372 368.059,129.583 368.189 C 129.793 368.319,129.864 368.690,129.740 369.013 C 129.590 369.404,129.762 369.589,130.257 369.568 C 130.666 369.551,130.785 369.449,130.522 369.343 C 130.260 369.236,130.135 368.913,130.245 368.626 C 130.356 368.338,130.159 367.993,129.808 367.858 C 129.428 367.713,129.075 367.861,128.935 368.224 M130.989 368.418 C 130.847 368.647,130.952 369.102,131.223 369.427 C 131.493 369.753,131.598 370.135,131.457 370.276 C 131.316 370.418,131.200 370.293,131.200 370.000 C 131.200 369.319,130.672 369.828,130.556 370.621 C 130.459 371.279,131.606 371.264,132.094 370.600 C 132.261 370.373,132.390 370.498,132.394 370.887 C 132.398 371.295,132.617 371.491,132.933 371.370 C 133.526 371.143,133.673 370.000,133.110 370.000 C 132.913 370.000,132.854 369.836,132.978 369.636 C 133.300 369.115,132.786 367.961,132.352 368.230 C 132.151 368.354,132.108 368.651,132.255 368.889 C 132.417 369.151,132.337 369.208,132.055 369.034 C 131.798 368.875,131.691 368.577,131.817 368.372 C 131.944 368.168,131.867 368.000,131.647 368.000 C 131.427 368.000,131.131 368.188,130.989 368.418 M153.796 368.407 C 153.658 368.630,153.415 368.733,153.255 368.634 C 153.096 368.536,152.938 368.823,152.904 369.273 C 152.871 369.723,152.880 370.025,152.926 369.945 C 152.971 369.865,153.350 369.395,153.766 368.900 C 154.183 368.405,154.417 368.000,154.286 368.000 C 154.154 368.000,153.934 368.183,153.796 368.407 M134.200 371.028 C 134.200 372.057,134.611 371.965,134.897 370.873 C 135.003 370.466,134.890 370.133,134.645 370.133 C 134.400 370.133,134.200 370.536,134.200 371.028 M155.387 371.621 C 155.289 371.780,155.511 372.155,155.881 372.455 C 156.344 372.830,156.460 372.844,156.253 372.500 C 156.088 372.225,156.143 372.000,156.376 372.000 C 156.609 372.000,156.800 371.850,156.800 371.667 C 156.800 371.259,155.634 371.221,155.387 371.621 " stroke="none" fill="#540c94" fill-rule="evenodd"></path><path id="path4" d="M217.100 206.316 L 214.800 206.440 214.794 208.120 C 214.786 210.347,214.524 210.619,212.400 210.609 L 210.600 210.600 210.609 212.400 C 210.619 214.527,210.348 214.786,208.100 214.794 L 206.400 214.800 206.400 216.900 L 206.400 219.000 204.300 219.000 L 202.200 219.000 202.158 220.459 C 202.092 222.774,201.750 223.324,200.562 223.026 C 198.599 222.534,198.000 223.048,198.000 225.227 L 198.000 227.200 196.047 227.200 C 193.938 227.200,193.618 227.580,193.605 230.100 C 193.600 231.243,193.704 231.199,190.613 231.359 C 189.981 231.392,189.810 231.717,189.749 233.000 C 189.708 233.880,189.657 234.825,189.637 235.100 C 189.613 235.428,188.914 235.600,187.600 235.600 L 185.600 235.600 185.600 237.600 C 185.600 238.914,185.428 239.613,185.100 239.637 C 184.825 239.657,183.880 239.708,183.000 239.749 C 181.717 239.810,181.392 239.981,181.359 240.613 C 181.199 243.704,181.243 243.600,180.100 243.605 C 177.580 243.618,177.200 243.938,177.200 246.047 L 177.200 248.000 175.227 248.000 C 173.048 248.000,172.534 248.599,173.026 250.562 C 173.324 251.750,172.774 252.092,170.459 252.158 L 169.000 252.200 169.000 254.300 L 169.000 256.400 166.900 256.400 L 164.800 256.400 164.794 258.100 C 164.786 260.348,164.527 260.619,162.400 260.609 L 160.600 260.600 160.609 262.400 C 160.619 264.527,160.348 264.786,158.100 264.794 L 156.400 264.800 156.400 266.900 L 156.400 269.000 154.300 269.000 L 152.200 269.000 152.158 270.459 C 152.092 272.774,151.750 273.324,150.562 273.026 C 148.599 272.534,148.000 273.048,148.000 275.227 L 148.000 277.200 146.047 277.200 C 143.938 277.200,143.618 277.580,143.605 280.100 C 143.600 281.243,143.704 281.199,140.613 281.359 C 139.981 281.392,139.810 281.717,139.749 283.000 C 139.708 283.880,139.657 284.825,139.637 285.100 C 139.613 285.428,138.914 285.600,137.600 285.600 L 135.600 285.600 135.600 287.600 C 135.600 288.914,135.428 289.613,135.100 289.637 C 134.825 289.657,133.880 289.708,133.000 289.749 C 131.717 289.810,131.392 289.981,131.359 290.613 C 131.199 293.704,131.243 293.600,130.100 293.605 C 127.580 293.618,127.200 293.938,127.200 296.047 L 127.200 298.000 125.227 298.000 C 123.048 298.000,122.534 298.599,123.026 300.562 C 123.324 301.750,122.774 302.092,120.459 302.158 L 119.000 302.200 119.000 304.300 L 119.000 306.400 116.900 306.400 L 114.800 306.400 114.800 307.920 C 114.800 308.756,114.986 309.626,115.213 309.853 C 115.672 310.312,115.542 310.351,113.000 310.504 C 110.703 310.642,110.483 310.906,110.559 313.425 C 110.596 314.655,110.457 315.765,110.251 315.892 C 110.045 316.019,110.005 315.916,110.162 315.662 C 110.618 314.924,108.990 315.111,108.089 315.900 C 106.616 317.190,106.447 318.803,106.418 331.841 C 106.389 344.338,106.399 344.494,107.195 344.285 C 107.638 344.169,107.900 344.238,107.777 344.437 C 107.654 344.637,107.293 344.800,106.976 344.800 C 106.520 344.800,106.400 345.505,106.400 348.192 C 106.400 351.885,106.403 351.890,109.145 351.940 C 110.498 351.965,110.529 352.048,110.566 355.780 C 110.604 359.595,110.819 359.971,113.132 360.282 C 114.748 360.498,114.761 360.514,114.880 362.350 L 115.000 364.200 116.900 364.322 C 118.752 364.441,118.800 364.476,118.800 365.745 C 118.800 368.042,119.439 368.454,123.382 368.700 L 126.916 368.920 126.708 367.830 C 126.565 367.081,126.628 366.868,126.912 367.152 C 127.139 367.379,127.293 368.537,127.254 369.726 C 127.148 372.978,126.182 372.813,144.641 372.700 C 162.799 372.589,163.040 372.556,163.744 370.100 C 164.095 368.873,164.220 368.800,165.978 368.800 C 168.284 368.800,168.800 368.310,168.800 366.120 L 168.800 364.400 170.800 364.400 L 172.800 364.400 172.800 362.421 L 172.800 360.442 174.900 360.321 L 177.000 360.200 177.121 358.321 L 177.242 356.442 179.121 356.321 L 181.000 356.200 181.121 354.100 L 181.242 352.000 183.421 352.000 L 185.600 352.000 185.600 350.022 L 185.600 348.044 187.500 347.922 L 189.400 347.800 189.521 345.700 L 189.642 343.600 191.621 343.600 L 193.600 343.600 193.600 341.621 L 193.600 339.642 195.700 339.521 L 197.800 339.400 197.922 337.500 L 198.044 335.600 200.022 335.600 L 202.000 335.600 202.000 333.421 L 202.000 331.242 204.100 331.121 L 206.200 331.000 206.321 329.121 L 206.442 327.242 208.321 327.121 L 210.200 327.000 210.321 324.900 L 210.442 322.800 212.421 322.800 L 214.400 322.800 214.400 320.821 L 214.400 318.842 216.500 318.721 L 218.600 318.600 218.721 316.500 L 218.842 314.400 220.821 314.400 L 222.800 314.400 222.800 312.421 L 222.800 310.442 224.900 310.321 L 227.000 310.200 227.121 308.321 L 227.242 306.442 229.121 306.321 L 231.000 306.200 231.121 304.100 L 231.242 302.000 233.421 302.000 L 235.600 302.000 235.600 300.022 L 235.600 298.044 237.500 297.922 L 239.400 297.800 239.521 295.700 L 239.642 293.600 241.621 293.600 L 243.600 293.600 243.600 291.621 L 243.600 289.642 245.700 289.521 L 247.800 289.400 247.922 287.500 L 248.044 285.600 250.022 285.600 L 252.000 285.600 252.000 283.421 L 252.000 281.242 254.100 281.121 L 256.200 281.000 256.321 279.121 L 256.442 277.242 258.321 277.121 L 260.200 277.000 260.321 274.900 L 260.442 272.800 262.421 272.800 L 264.400 272.800 264.400 270.821 L 264.400 268.842 266.500 268.721 L 268.600 268.600 268.721 266.500 L 268.842 264.400 270.821 264.400 L 272.800 264.400 272.800 262.421 L 272.800 260.442 274.900 260.321 L 277.000 260.200 277.121 258.321 L 277.242 256.442 279.121 256.321 L 281.000 256.200 281.121 254.100 L 281.242 252.000 283.421 252.000 L 285.600 252.000 285.600 250.022 L 285.600 248.044 287.500 247.922 L 289.400 247.800 289.521 245.700 L 289.642 243.600 291.621 243.600 L 293.600 243.600 293.600 241.568 L 293.600 239.536 290.948 239.668 C 288.632 239.783,288.215 239.927,287.653 240.800 C 287.032 241.765,287.036 241.779,287.770 241.200 C 288.485 240.636,288.503 240.653,288.063 241.478 C 287.806 241.960,287.389 242.483,287.136 242.640 C 286.852 242.815,286.785 242.747,286.962 242.462 C 287.146 242.163,286.921 242.002,286.324 242.006 C 285.581 242.011,285.517 242.088,286.000 242.400 C 286.509 242.729,286.490 242.789,285.876 242.794 C 285.478 242.797,285.253 242.962,285.375 243.160 C 285.727 243.729,267.529 243.733,266.279 243.163 C 265.486 242.802,265.213 242.350,265.121 241.245 L 265.000 239.800 260.832 239.600 C 258.003 239.464,256.612 239.239,256.499 238.900 C 256.408 238.625,256.054 238.400,255.713 238.400 C 255.110 238.400,253.201 236.501,253.200 235.900 C 253.200 235.735,252.777 235.600,252.260 235.600 C 250.021 235.600,248.794 234.789,248.313 232.991 C 247.881 231.374,247.749 231.253,246.168 231.016 C 244.425 230.755,244.018 230.206,244.005 228.100 C 244.001 227.413,243.768 227.200,243.019 227.200 C 240.891 227.200,240.000 226.414,240.000 224.536 L 240.000 222.800 238.190 222.800 C 236.247 222.800,235.600 222.044,235.600 219.774 C 235.600 219.009,235.391 218.800,234.626 218.800 C 232.356 218.800,231.600 218.153,231.600 216.210 L 231.600 214.400 229.790 214.400 C 227.857 214.400,227.200 213.643,227.200 211.419 C 227.200 210.626,226.939 210.452,225.400 210.221 C 224.410 210.072,223.593 209.917,223.585 209.875 C 223.577 209.834,223.468 209.080,223.343 208.200 C 223.060 206.203,222.470 206.025,217.100 206.316 M118.000 308.869 C 118.000 309.126,118.315 309.711,118.700 310.169 C 119.390 310.988,119.388 310.990,118.569 310.300 C 118.111 309.915,117.526 309.600,117.269 309.600 C 116.756 309.600,116.645 309.088,117.067 308.667 C 117.488 308.245,118.000 308.356,118.000 308.869 M110.640 319.040 C 110.522 319.348,110.644 319.605,110.913 319.612 C 111.181 319.619,111.068 319.818,110.661 320.054 C 110.137 320.359,109.799 320.359,109.495 320.055 C 109.190 319.750,109.259 319.552,109.733 319.370 C 110.100 319.230,110.400 318.943,110.400 318.734 C 110.400 318.524,110.192 318.481,109.938 318.638 C 109.650 318.816,109.585 318.748,109.766 318.455 C 110.155 317.826,110.911 318.333,110.640 319.040 M111.195 321.435 C 111.724 321.976,111.725 322.037,111.204 321.927 C 110.548 321.787,110.571 323.618,111.242 324.876 C 111.716 325.766,110.836 326.336,110.239 325.526 C 109.998 325.198,109.575 325.006,109.300 325.098 C 109.025 325.191,108.800 325.082,108.800 324.856 C 108.800 324.631,109.133 324.510,109.540 324.588 C 110.131 324.702,110.285 324.476,110.302 323.465 C 110.321 322.367,110.279 322.315,109.986 323.069 C 109.742 323.698,109.419 323.878,108.816 323.720 C 108.253 323.573,108.104 323.356,108.358 323.051 C 108.563 322.803,108.732 322.450,108.733 322.267 C 108.733 322.083,108.867 321.813,109.031 321.667 C 109.194 321.520,109.206 321.613,109.058 321.872 C 108.589 322.690,109.416 322.787,109.923 321.974 C 110.352 321.287,110.296 321.200,109.423 321.200 C 108.882 321.200,108.256 321.515,108.032 321.900 C 107.808 322.285,107.619 322.386,107.612 322.124 C 107.605 321.862,107.783 321.534,108.007 321.396 C 108.230 321.258,108.292 320.949,108.144 320.710 C 107.733 320.044,110.469 320.695,111.195 321.435 M108.550 346.881 C 108.209 347.433,108.906 347.228,109.646 346.558 C 110.309 345.958,110.379 346.004,110.711 347.258 C 110.932 348.089,110.921 348.697,110.682 348.855 C 110.471 348.996,110.401 349.279,110.528 349.484 C 110.655 349.689,110.436 350.134,110.041 350.472 C 109.389 351.030,109.279 351.019,108.861 350.349 C 108.296 349.444,108.283 349.200,108.800 349.200 C 109.020 349.200,109.155 349.335,109.100 349.500 C 109.045 349.665,109.180 349.845,109.400 349.900 C 109.620 349.955,109.822 349.820,109.850 349.600 C 109.878 349.380,109.936 349.155,109.981 349.100 C 110.347 348.646,110.200 347.733,109.761 347.733 C 109.386 347.733,109.336 347.882,109.603 348.203 C 110.172 348.890,109.631 349.226,108.797 348.705 C 108.395 348.454,108.180 347.996,108.308 347.663 C 108.471 347.237,108.375 347.161,107.968 347.393 C 107.525 347.646,107.503 347.606,107.869 347.210 C 108.127 346.931,108.245 346.409,108.131 346.051 C 107.958 345.506,107.991 345.495,108.336 345.981 C 108.562 346.300,108.658 346.705,108.550 346.881 M168.962 361.241 C 168.941 361.966,168.712 362.599,168.452 362.649 C 168.192 362.699,168.149 362.654,168.356 362.548 C 168.576 362.436,168.595 361.881,168.402 361.208 C 168.221 360.577,168.172 359.962,168.292 359.841 C 168.733 359.400,168.999 359.955,168.962 361.241 M165.400 364.833 C 165.400 365.161,164.978 365.416,164.400 365.439 C 163.530 365.472,163.517 365.456,164.300 365.312 C 164.795 365.221,165.200 364.984,165.200 364.786 C 165.200 364.588,164.948 364.522,164.640 364.640 C 164.333 364.758,163.981 364.693,163.859 364.495 C 163.737 364.298,164.034 364.166,164.519 364.201 C 165.003 364.237,165.400 364.521,165.400 364.833 M124.183 365.972 C 124.584 366.621,123.713 366.818,123.196 366.196 C 122.794 365.711,122.819 365.600,123.327 365.600 C 123.671 365.600,124.056 365.768,124.183 365.972 M159.850 368.033 C 159.878 368.235,159.923 368.521,159.950 368.670 C 159.978 368.818,160.490 368.503,161.088 367.970 C 161.686 367.436,161.934 367.315,161.639 367.700 C 161.344 368.085,161.236 368.400,161.400 368.400 C 161.564 368.400,161.475 368.668,161.203 368.996 C 160.890 369.373,160.358 369.504,159.754 369.353 C 159.178 369.208,158.800 369.289,158.800 369.557 C 158.800 369.800,158.980 370.000,159.200 370.000 C 159.420 370.000,159.600 370.141,159.600 370.314 C 159.600 370.487,159.266 370.629,158.859 370.629 C 158.451 370.629,158.136 370.408,158.159 370.138 C 158.181 369.868,158.020 369.644,157.800 369.642 C 157.580 369.639,157.443 370.033,157.496 370.518 C 157.584 371.323,157.556 371.314,157.176 370.410 C 156.847 369.629,156.685 369.539,156.409 369.985 C 156.217 370.297,155.371 370.582,154.530 370.620 C 153.688 370.657,153.226 370.608,153.502 370.510 C 153.779 370.412,153.905 370.169,153.782 369.970 C 153.659 369.772,153.814 369.707,154.127 369.827 C 154.473 369.960,154.777 369.731,154.905 369.241 C 155.170 368.229,157.137 367.656,157.637 368.446 C 157.906 368.870,157.989 368.879,157.994 368.482 C 157.997 368.198,158.315 368.018,158.700 368.082 C 159.149 368.158,159.352 367.985,159.267 367.600 C 159.193 367.270,159.283 367.150,159.467 367.333 C 159.650 367.517,159.822 367.832,159.850 368.033 M130.245 368.626 C 130.135 368.913,130.260 369.236,130.522 369.343 C 130.785 369.449,130.666 369.551,130.257 369.568 C 129.762 369.589,129.590 369.404,129.740 369.013 C 129.864 368.690,129.793 368.319,129.583 368.189 C 129.372 368.059,129.200 368.263,129.200 368.643 C 129.200 369.023,129.088 369.221,128.951 369.084 C 128.469 368.602,129.162 367.611,129.808 367.858 C 130.159 367.993,130.356 368.338,130.245 368.626 M131.817 368.372 C 131.691 368.577,131.798 368.875,132.055 369.034 C 132.337 369.208,132.417 369.151,132.255 368.889 C 132.108 368.651,132.151 368.354,132.352 368.230 C 132.786 367.961,133.300 369.115,132.978 369.636 C 132.854 369.836,132.913 370.000,133.110 370.000 C 133.673 370.000,133.526 371.143,132.933 371.370 C 132.617 371.491,132.398 371.295,132.394 370.887 C 132.390 370.498,132.261 370.373,132.094 370.600 C 131.606 371.264,130.459 371.279,130.556 370.621 C 130.672 369.828,131.200 369.319,131.200 370.000 C 131.200 370.293,131.316 370.418,131.457 370.276 C 131.598 370.135,131.493 369.753,131.223 369.427 C 130.712 368.811,130.953 368.000,131.647 368.000 C 131.867 368.000,131.944 368.168,131.817 368.372 M153.766 368.900 C 153.350 369.395,152.971 369.865,152.926 369.945 C 152.880 370.025,152.871 369.723,152.904 369.273 C 152.938 368.823,153.096 368.536,153.255 368.634 C 153.415 368.733,153.658 368.630,153.796 368.407 C 153.934 368.183,154.154 368.000,154.286 368.000 C 154.417 368.000,154.183 368.405,153.766 368.900 M134.897 370.873 C 134.611 371.965,134.200 372.057,134.200 371.028 C 134.200 370.536,134.400 370.133,134.645 370.133 C 134.890 370.133,135.003 370.466,134.897 370.873 M156.800 371.624 C 156.800 372.065,155.654 372.411,155.424 372.038 C 155.313 371.859,155.307 371.626,155.411 371.522 C 155.710 371.223,156.800 371.303,156.800 371.624 " stroke="none" fill="#4c0c9c" fill-rule="evenodd"></path></g></svg>